<svg width="28" height="23" viewBox="0 0 28 23" fill="none" xmlns="http://www.w3.org/2000/svg">
<path fill-rule="evenodd" clip-rule="evenodd" d="M16.7143 0H6.10714C2.73426 0 0 2.73426 0 6.10714V7.67963C0 8.4068 0.506934 8.93305 1.0553 9.12212C1.93889 9.42677 2.57143 10.2658 2.57143 11.25C2.57143 12.2342 1.93889 13.0732 1.0553 13.3779C0.506933 13.567 0 14.0932 0 14.8204V16.3929C0 19.7657 2.73426 22.5 6.10714 22.5H16.7143V17.6786C16.7143 17.146 17.146 16.7143 17.6786 16.7143C18.2111 16.7143 18.6429 17.146 18.6429 17.6786L18.6429 22.5H21.5357C24.9086 22.5 27.6429 19.7657 27.6429 16.3929V14.8204C27.6429 14.0932 27.1359 13.5669 26.5876 13.3779C25.704 13.0732 25.0714 12.2342 25.0714 11.25C25.0714 10.2658 25.704 9.42677 26.5876 9.12212C27.1359 8.93305 27.6429 8.4068 27.6429 7.67963V6.10714C27.6429 2.73426 24.9086 0 21.5357 0H18.6429L18.6429 4.82142C18.6429 5.35398 18.2111 5.7857 17.6786 5.7857C17.146 5.7857 16.7143 5.35398 16.7143 4.82142V0ZM17.6786 8.35713C18.2111 8.35713 18.6429 8.78886 18.6429 9.32142L18.6429 13.1786C18.6429 13.7111 18.2111 14.1428 17.6786 14.1428C17.146 14.1428 16.7143 13.7111 16.7143 13.1786V9.32142C16.7143 8.78886 17.146 8.35713 17.6786 8.35713Z" fill="white"/>
</svg>
