<svg width="29" height="22" viewBox="0 0 29 22" fill="none" xmlns="http://www.w3.org/2000/svg">
<path fill-rule="evenodd" clip-rule="evenodd" d="M24.7892 19.2139C24.8605 19.2233 24.9318 19.233 25.0031 19.243L25.3613 19.2933C26.9211 19.5122 28.3165 18.3234 28.3165 16.7757V15.5946C28.3165 14.4878 27.6082 13.5004 26.547 13.1281C25.3209 12.698 24.0552 12.418 22.7775 12.288C24.1107 13.2519 24.9376 14.8128 24.9376 16.5157V17.9821C24.9376 18.408 24.8861 18.8204 24.7892 19.2139ZM19.3853 10.7167C19.9166 10.9361 20.5002 11.0573 21.1127 11.0573C23.5768 11.0573 25.5744 9.09514 25.5744 6.6747C25.5744 4.25427 23.5768 2.29211 21.1127 2.29211C21.0397 2.29211 20.9671 2.29384 20.895 2.29724C21.343 3.25157 21.5935 4.31713 21.5935 5.44118C21.5935 7.50606 20.7484 9.37357 19.3853 10.7167Z" fill="white"/>
<path fill-rule="evenodd" clip-rule="evenodd" d="M3.52731 19.2139C3.45599 19.2233 3.3847 19.233 3.31344 19.243L2.9552 19.2933C1.39547 19.5122 8.86679e-06 18.3234 8.86679e-06 16.7757V15.5946C8.86679e-06 14.4878 0.708372 13.5004 1.76955 13.1281C2.99559 12.698 4.26132 12.418 5.53904 12.288C4.20583 13.2519 3.37891 14.8128 3.37891 16.5157V17.9821C3.37891 18.408 3.43045 18.8204 3.52731 19.2139ZM8.93127 10.7167C8.39996 10.9361 7.81632 11.0573 7.20384 11.0573C4.73972 11.0573 2.74215 9.09514 2.74215 6.6747C2.74215 4.25427 4.73972 2.29211 7.20384 2.29211C7.27684 2.29211 7.34943 2.29384 7.42157 2.29724C6.97348 3.25157 6.72306 4.31713 6.72306 5.44118C6.72306 7.50606 7.56812 9.37357 8.93127 10.7167Z" fill="white"/>
<path fill-rule="evenodd" clip-rule="evenodd" d="M19.6287 5.44119C19.6287 2.4361 17.1926 0 14.1875 0C11.1825 0 8.74635 2.4361 8.74635 5.44119C8.74635 8.44628 11.1825 10.8824 14.1875 10.8824C17.1926 10.8824 19.6287 8.44628 19.6287 5.44119Z" fill="white"/>
<path fill-rule="evenodd" clip-rule="evenodd" d="M7.56024 13.4534C11.8459 11.9228 16.5292 11.9228 20.8149 13.4534C22.109 13.9156 22.9729 15.1415 22.9729 16.5157V17.9821C22.9729 19.9035 21.2711 21.3795 19.3689 21.1078L18.932 21.0454C15.785 20.5958 12.5901 20.5958 9.44306 21.0454L9.00618 21.1078C7.10404 21.3795 5.40222 19.9035 5.40222 17.9821V16.5157C5.40222 15.1415 6.2661 13.9156 7.56024 13.4534Z" fill="white"/>
</svg>
