<svg width="25" height="26" viewBox="0 0 25 26" fill="none" xmlns="http://www.w3.org/2000/svg">
<path d="M0 12.1351C0 10.5611 0.720745 9.07385 1.95612 8.09856L9.02754 2.51585C10.896 1.04076 13.5326 1.04076 15.401 2.51585L22.4725 8.09856C23.7078 9.07385 24.4286 10.5611 24.4286 12.1351V20.5714C24.4286 23.4118 22.126 25.7143 19.2857 25.7143H17.3571C16.6471 25.7143 16.0714 25.1387 16.0714 24.4286V20.5714C16.0714 19.1513 14.9202 18 13.5 18H10.9286C9.50841 18 8.35714 19.1513 8.35714 20.5714V24.4286C8.35714 25.1387 7.78151 25.7143 7.07143 25.7143H5.14286C2.30253 25.7143 0 23.4117 0 20.5714L0 12.1351Z" fill="white"/>
</svg>
