<svg width="23" height="27" viewBox="0 0 23 27" fill="none" xmlns="http://www.w3.org/2000/svg">
<path fill-rule="evenodd" clip-rule="evenodd" d="M0 11.1429C0 4.97933 5.04634 0 11.25 0C17.4537 0 22.5 4.97933 22.5 11.1429C22.5 14.9763 20.2645 18.7597 17.8953 21.5137C16.6963 22.9074 15.4238 24.084 14.3013 24.9208C13.741 25.3385 13.2024 25.6832 12.7163 25.928C12.2606 26.1575 11.7402 26.3571 11.25 26.3571C10.7598 26.3571 10.2394 26.1575 9.78369 25.928C9.29756 25.6832 8.759 25.3385 8.19867 24.9208C7.0762 24.084 5.80366 22.9074 4.60471 21.5137C2.2355 18.7597 0 14.9763 0 11.1429ZM11.25 14.4643C9.11975 14.4643 7.39285 12.7374 7.39285 10.6071C7.39285 8.4769 9.11975 6.75 11.25 6.75C13.3802 6.75 15.1071 8.4769 15.1071 10.6071C15.1071 12.7374 13.3802 14.4643 11.25 14.4643Z" fill="#D9D9D9"/>
</svg>
