<svg width="23" height="22" viewBox="0 0 23 22" fill="none" xmlns="http://www.w3.org/2000/svg">
<path fill-rule="evenodd" clip-rule="evenodd" d="M6.03155 0C2.70042 0 0 2.70042 0 6.03155V19.5835C0 21.1228 1.78049 21.9785 2.98244 21.017L5.94836 18.6442C6.18085 18.4582 6.46973 18.3569 6.76746 18.3569H16.5212C19.8523 18.3569 22.5528 15.6565 22.5528 12.3253V6.03155C22.5528 2.70042 19.8523 0 16.5212 0H6.03155ZM6.08379 10.5419C6.80795 10.5419 7.395 9.95485 7.395 9.23069C7.395 8.50653 6.80795 7.91948 6.08379 7.91948C5.35963 7.91948 4.77259 8.50653 4.77259 9.23069C4.77259 9.95485 5.35963 10.5419 6.08379 10.5419ZM12.6398 9.23068C12.6398 9.95484 12.0528 10.5419 11.3286 10.5419C10.6045 10.5419 10.0174 9.95484 10.0174 9.23068C10.0174 8.50652 10.6045 7.91947 11.3286 7.91947C12.0528 7.91947 12.6398 8.50652 12.6398 9.23068ZM16.5735 10.5419C17.2976 10.5419 17.8847 9.95484 17.8847 9.23068C17.8847 8.50652 17.2976 7.91947 16.5735 7.91947C15.8493 7.91947 15.2622 8.50652 15.2622 9.23068C15.2622 9.95484 15.8493 10.5419 16.5735 10.5419Z" fill="white"/>
</svg>
