<svg width="22" height="24" viewBox="0 0 22 24" fill="none" xmlns="http://www.w3.org/2000/svg">
<path fill-rule="evenodd" clip-rule="evenodd" d="M8.15776 0.352442C9.06787 0.122145 10.0202 0 11 0C11.9798 0 12.9323 0.122163 13.8424 0.352491C14.5852 0.540459 14.9687 1.18194 15.0921 1.71518C15.2383 2.34683 15.6347 2.91585 16.239 3.26477C16.7947 3.58558 17.4229 3.66095 18.0023 3.52434C18.5348 3.39879 19.2783 3.45861 19.7759 4.0393C20.701 5.11897 21.4308 6.37201 21.9096 7.74361C22.1955 8.56248 21.7526 9.29984 21.2849 9.68515C20.7451 10.1299 20.4032 10.8009 20.4032 11.5525C20.4032 12.3041 20.7451 12.9751 21.2849 13.4199C21.7526 13.8052 22.1955 14.5425 21.9096 15.3614C21.4309 16.7329 20.7012 17.9858 19.7762 19.0654C19.2786 19.6462 18.535 19.706 18.0024 19.5803C17.423 19.4437 16.7947 19.519 16.239 19.8399C15.6346 20.1888 15.2381 20.758 15.092 21.3897C14.9687 21.923 14.5851 22.5646 13.8423 22.7526C12.9321 22.9829 11.9798 23.105 11 23.105C10.0203 23.105 9.06793 22.9829 8.15785 22.7526C7.41497 22.5646 7.03142 21.923 6.90807 21.3897C6.76196 20.758 6.36554 20.1888 5.76111 19.8399C5.20539 19.519 4.57708 19.4437 3.99762 19.5804C3.46506 19.706 2.72143 19.6462 2.2238 19.0654C1.29881 17.9858 0.569135 16.7329 0.0903518 15.3614C-0.19552 14.5426 0.247403 13.8052 0.715059 13.4199C1.25488 12.9751 1.59682 12.3041 1.59682 11.5525C1.59682 10.8009 1.25488 10.1299 0.71506 9.68514C0.247404 9.29983 -0.195519 8.56247 0.0903534 7.74359C0.569191 6.37198 1.29898 5.11893 2.22411 4.03926C2.72171 3.45855 3.46524 3.39875 3.99777 3.52432C4.57719 3.66095 5.20544 3.58559 5.76111 3.26477C6.36548 2.91584 6.76187 2.34682 6.90803 1.71516C7.03141 1.1819 7.41496 0.540403 8.15776 0.352442ZM11 14.7765C9.21943 14.7765 7.77601 13.3331 7.77601 11.5525C7.77601 9.77197 9.21943 8.32856 11 8.32856C12.7805 8.32856 14.2239 9.77197 14.2239 11.5525C14.2239 13.3331 12.7805 14.7765 11 14.7765Z" fill="white"/>
</svg>
