<svg width="20" height="25" viewBox="0 0 20 25" fill="none" xmlns="http://www.w3.org/2000/svg">
<path fill-rule="evenodd" clip-rule="evenodd" d="M10.0001 1C6.13409 1 3.00009 4.134 3.00009 7.99999V10.6741C3.00009 11.7745 2.31001 12.7369 1.6816 13.6402C1.25191 14.2579 1 15.0085 1 15.8179C1 17.6612 2.31698 19.2427 4.14285 19.4959C5.95603 19.7474 8.22169 20.0002 9.99999 20.0002C11.7783 20.0002 14.044 19.7474 15.8571 19.4959C17.683 19.2427 19 17.6612 19 15.8179C19 15.0085 18.7481 14.2579 18.3184 13.6403C17.6901 12.7371 17.0001 11.7747 17.0001 10.6744V8C17.0001 4.13401 13.8661 1 10.0001 1Z" fill="white"/>
<path d="M1 15.8179L0.25 15.8179L1 15.8179ZM4.14285 19.4959L4.03983 20.2388L4.03983 20.2388L4.14285 19.4959ZM15.8571 19.4959L15.9601 20.2388L15.9602 20.2388L15.8571 19.4959ZM18.3184 13.6403L17.7028 14.0686L18.3184 13.6403ZM1.6816 13.6402L1.06594 13.2119L1.6816 13.6402ZM3.75009 7.99999C3.75009 4.54821 6.54831 1.75 10.0001 1.75V0.25C5.71988 0.25 2.25009 3.71979 2.25009 7.99999H3.75009ZM3.75009 10.6741V7.99999H2.25009V10.6741H3.75009ZM1.75 15.8179C1.75 15.1665 1.9522 14.5645 2.29726 14.0685L1.06594 13.2119C0.551613 13.9512 0.25 14.8504 0.25 15.8179L1.75 15.8179ZM4.24586 18.753C2.80807 18.5537 1.75 17.3045 1.75 15.8179L0.25 15.8179C0.25 18.018 1.82589 19.9318 4.03983 20.2388L4.24586 18.753ZM9.99999 19.2502C8.27606 19.2502 6.05295 19.0036 4.24586 18.753L4.03983 20.2388C5.85911 20.4911 8.16733 20.7502 9.99999 20.7502V19.2502ZM15.7541 18.753C13.947 19.0036 11.7239 19.2502 9.99999 19.2502V20.7502C11.8327 20.7502 14.1409 20.4911 15.9601 20.2388L15.7541 18.753ZM18.25 15.8179C18.25 17.3045 17.1919 18.5537 15.7541 18.753L15.9602 20.2388C18.1741 19.9318 19.75 18.018 19.75 15.8179H18.25ZM17.7028 14.0686C18.0478 14.5646 18.25 15.1665 18.25 15.8179H19.75C19.75 14.8505 19.4484 13.9513 18.9341 13.212L17.7028 14.0686ZM16.2501 8V10.6744H17.7501V8H16.2501ZM10.0001 1.75C13.4519 1.75 16.2501 4.54822 16.2501 8H17.7501C17.7501 3.71979 14.2803 0.25 10.0001 0.25V1.75ZM18.9341 13.212C18.2656 12.2511 17.7501 11.493 17.7501 10.6744H16.2501C16.2501 12.0563 17.1145 13.2231 17.7028 14.0686L18.9341 13.212ZM2.25009 10.6741C2.25009 11.4928 1.73449 12.2509 1.06594 13.2119L2.29726 14.0685C2.88554 13.223 3.75009 12.0562 3.75009 10.6741H2.25009Z" fill="white"/>
<path d="M12.5 22.6591C11.9625 23.4674 11.0435 24.0002 10 24.0002C8.95653 24.0002 8.03747 23.4674 7.50001 22.6591" stroke="white" stroke-width="1.5" stroke-linecap="round"/>
</svg>
